<?xml version="1.0" standalone="no"?><!DOCTYPE svg PUBLIC "-//W3C//DTD SVG 1.1//EN" "http://www.w3.org/Graphics/SVG/1.1/DTD/svg11.dtd"><svg t="1582511890361" class="icon" viewBox="0 0 1024 1024" version="1.1" xmlns="http://www.w3.org/2000/svg" p-id="14423" xmlns:xlink="http://www.w3.org/1999/xlink" width="16" height="16"><defs><style type="text/css"></style></defs><path d="M736 0h-512C134.4 0 64 70.4 64 160v704C64 953.6 134.4 1024 224 1024h512c89.6 0 160-70.4 160-160v-704C896 70.4 825.6 0 736 0zM832 864c0 51.2-44.8 96-96 96h-512c-51.2 0-96-44.8-96-96v-704C128 108.8 172.8 64 224 64h512c51.2 0 96 44.8 96 96v704z" p-id="14424" fill="#ffffff"></path><path d="M352 512h256c19.2 0 32-12.8 32-32v-256c0-19.2-12.8-32-32-32h-256c-19.2 0-32 12.8-32 32v256c0 19.2 12.8 32 32 32zM384 256h192v192H384V256zM672 640h-384c-19.2 0-32 12.8-32 32s12.8 32 32 32h384c19.2 0 32-12.8 32-32s-12.8-32-32-32zM672 768h-384c-19.2 0-32 12.8-32 32s12.8 32 32 32h384c19.2 0 32-12.8 32-32s-12.8-32-32-32z" p-id="14425" fill="#ffffff"></path></svg>