<?xml version="1.0" standalone="no"?><!DOCTYPE svg PUBLIC "-//W3C//DTD SVG 1.1//EN" "http://www.w3.org/Graphics/SVG/1.1/DTD/svg11.dtd"><svg t="1582512968740" class="icon" viewBox="0 0 1024 1024" version="1.1" xmlns="http://www.w3.org/2000/svg" p-id="24274" xmlns:xlink="http://www.w3.org/1999/xlink" width="16" height="16"><defs><style type="text/css"></style></defs><path d="M163.84 163.84v255.232h255.232V163.84H163.84zM153.6 102.4h275.712a51.2 51.2 0 0 1 51.2 51.2v275.712a51.2 51.2 0 0 1-51.2 51.2H153.6a51.2 51.2 0 0 1-51.2-51.2V153.6a51.2 51.2 0 0 1 51.2-51.2zM163.84 604.928V860.16h255.232v-255.232H163.84z m-10.24-61.44h275.712a51.2 51.2 0 0 1 51.2 51.2V870.4a51.2 51.2 0 0 1-51.2 51.2H153.6a51.2 51.2 0 0 1-51.2-51.2v-275.712a51.2 51.2 0 0 1 51.2-51.2zM604.928 163.84v255.232H860.16V163.84h-255.232z m-10.24-61.44H870.4a51.2 51.2 0 0 1 51.2 51.2v275.712a51.2 51.2 0 0 1-51.2 51.2h-275.712a51.2 51.2 0 0 1-51.2-51.2V153.6a51.2 51.2 0 0 1 51.2-51.2zM604.928 604.928V860.16H860.16v-255.232h-255.232z m-10.24-61.44H870.4a51.2 51.2 0 0 1 51.2 51.2V870.4a51.2 51.2 0 0 1-51.2 51.2h-275.712a51.2 51.2 0 0 1-51.2-51.2v-275.712a51.2 51.2 0 0 1 51.2-51.2z" fill="#ffffff" p-id="24275"></path></svg>