<?xml version="1.0" standalone="no"?><!DOCTYPE svg PUBLIC "-//W3C//DTD SVG 1.1//EN" "http://www.w3.org/Graphics/SVG/1.1/DTD/svg11.dtd"><svg t="1581741810255" class="icon" viewBox="0 0 1024 1024" version="1.1" xmlns="http://www.w3.org/2000/svg" p-id="79136" xmlns:xlink="http://www.w3.org/1999/xlink" width="16" height="16"><defs><style type="text/css"></style></defs><path d="M802.816 201.728C724.992 124.928 622.592 81.92 513.024 81.92s-211.968 43.008-289.792 119.808c-159.744 159.744-159.744 418.816 0 578.56C300.032 858.112 403.456 901.12 513.024 901.12s211.968-43.008 289.792-119.808c159.744-159.744 159.744-419.84 0-579.584z m-52.224 527.36c-63.488 63.488-147.456 98.304-237.568 98.304-90.112 0-174.08-34.816-237.568-98.304-131.072-131.072-131.072-344.064 0-475.136 63.488-63.488 147.456-98.304 237.568-98.304 90.112 0 174.08 34.816 237.568 98.304 131.072 131.072 131.072 344.064 0 475.136z" p-id="79137" fill="#03f066"></path><path d="M513.024 351.232c-37.888 0-72.704 14.336-99.328 40.96-54.272 54.272-54.272 143.36 0 197.632 26.624 26.624 61.44 40.96 99.328 40.96 37.888 0 72.704-14.336 99.328-40.96 26.624-26.624 40.96-61.44 40.96-99.328 0-37.888-14.336-72.704-40.96-99.328-26.624-25.6-62.464-39.936-99.328-39.936z m47.104 187.392c-12.288 12.288-29.696 19.456-47.104 19.456-17.408 0-34.816-7.168-47.104-19.456-25.6-25.6-25.6-68.608 0-94.208 12.288-12.288 29.696-19.456 47.104-19.456 17.408 0 34.816 7.168 47.104 19.456 25.6 25.6 25.6 68.608 0 94.208zM621.568 361.472c7.168 0 14.336-3.072 19.456-9.216l70.656-90.112c8.192-10.24 6.144-25.6-4.096-34.816-10.24-8.192-25.6-6.144-34.816 4.096l-70.656 90.112c-8.192 10.24-6.144 25.6 4.096 34.816 4.096 3.072 10.24 5.12 15.36 5.12zM778.24 297.984c-8.192-10.24-23.552-12.288-34.816-4.096l-90.112 70.656c-10.24 8.192-12.288 23.552-4.096 34.816 5.12 6.144 12.288 9.216 19.456 9.216 5.12 0 10.24-2.048 15.36-5.12l90.112-70.656c10.24-9.216 12.288-24.576 4.096-34.816zM385.024 631.808l-70.656 90.112c-8.192 10.24-6.144 25.6 4.096 34.816 4.096 3.072 10.24 5.12 15.36 5.12 7.168 0 14.336-3.072 19.456-9.216l70.656-90.112c8.192-10.24 6.144-25.6-4.096-34.816-11.264-9.216-26.624-7.168-34.816 4.096zM376.832 584.704c-8.192-10.24-23.552-12.288-34.816-4.096l-90.112 70.656c-10.24 8.192-12.288 23.552-4.096 34.816 5.12 6.144 12.288 9.216 19.456 9.216 5.12 0 10.24-2.048 15.36-5.12l90.112-70.656c10.24-8.192 12.288-24.576 4.096-34.816z" p-id="79138" fill="#03f066"></path></svg>