<?xml version="1.0" standalone="no"?><!DOCTYPE svg PUBLIC "-//W3C//DTD SVG 1.1//EN" "http://www.w3.org/Graphics/SVG/1.1/DTD/svg11.dtd"><svg t="1583036157244" class="icon" viewBox="0 0 1024 1024" version="1.1" xmlns="http://www.w3.org/2000/svg" p-id="3928" xmlns:xlink="http://www.w3.org/1999/xlink" width="16" height="16"><defs><style type="text/css"></style></defs><path d="M284.032 332.032v480c0 14.528 11.136 26.688 25.664 27.84l2.304 0.128h408a27.968 27.968 0 0 0 27.904-25.728l0.128-2.304v-480h-464zM423.936 400c18.944 0 34.624 14.656 35.904 33.536l0.128 2.432v304a36.032 36.032 0 0 1-71.936 2.496l-0.128-2.496v-304c0-19.84 16.128-35.968 36.032-35.968z m192 0c18.944 0 34.624 14.656 35.904 33.536l0.128 2.432v304a36.032 36.032 0 0 1-71.936 2.496l-0.128-2.496v-304c0-19.84 16.128-35.968 36.032-35.968z m20.032-140.032v-48a27.968 27.968 0 0 0-25.728-27.84L608 184h-192a27.968 27.968 0 0 0-27.904 25.664l-0.128 2.368v48h248z m183.936 552c0 53.824-42.496 97.984-96.32 99.968l-3.648 0.064H312c-53.76 0-97.92-42.56-99.968-96.32V332.032h-64a36.032 36.032 0 0 1 0-72h167.936v-48c0-53.824 42.56-97.984 96.32-99.968L416 112h192c53.76 0 97.92 42.56 99.968 96.32v51.712h168.064a35.968 35.968 0 1 1 0 72h-56.064v480z" p-id="3929" fill="#dddddd"></path></svg>