<?xml version="1.0" standalone="no"?><!DOCTYPE svg PUBLIC "-//W3C//DTD SVG 1.1//EN" "http://www.w3.org/Graphics/SVG/1.1/DTD/svg11.dtd"><svg t="1580885782159" class="icon" viewBox="0 0 1024 1024" version="1.1" xmlns="http://www.w3.org/2000/svg" p-id="9271" xmlns:xlink="http://www.w3.org/1999/xlink" width="16" height="16"><defs><style type="text/css"></style></defs><path d="M680.16 554.08V848h21.12a152 152 0 0 0 20.96-1.44V555.52a152 152 0 0 0-20.96-1.44zM301.76 846.88a152 152 0 0 0 20.96 1.44h21.12V554.08h-21.12a152 152 0 0 0-20.96 1.44z" p-id="9272" fill="#7d818b"></path><path d="M259.68 834.24V568.16A148.48 148.48 0 0 0 224 592a294.24 294.24 0 1 1 576 0 153.12 153.12 0 0 0-36-24.32v266.56a147.2 147.2 0 0 0 64-208A336 336 0 1 0 176 512a333.6 333.6 0 0 0 20.16 114.88 147.2 147.2 0 0 0 64 208z" p-id="9273" fill="#7d818b"></path></svg>