<?xml version="1.0" standalone="no"?><!DOCTYPE svg PUBLIC "-//W3C//DTD SVG 1.1//EN" "http://www.w3.org/Graphics/SVG/1.1/DTD/svg11.dtd"><svg t="1583040177361" class="icon" viewBox="0 0 1173 1024" version="1.1" xmlns="http://www.w3.org/2000/svg" p-id="18723" xmlns:xlink="http://www.w3.org/1999/xlink" width="18.328125" height="16"><defs><style type="text/css"></style></defs><path d="M73.47629 674.687951a47.044147 47.044147 0 0 0 32.720994-57.909987 323.567418 323.567418 0 0 1 311.466824-410.000233h438.337849V290.185398c0 26.794173 18.521318 37.042635 41.364276 22.966434l200.647607-124.339779c22.781221-14.076201 22.966434-37.474799 0.493902-51.983165L896.501905 6.685763c-22.472532-14.570103-40.808636-4.506854-40.808637 22.225582v83.778093h-438.337849a417.655711 417.655711 0 0 0-402.159542 529.277518 47.044147 47.044147 0 0 0 45.377228 34.449651 45.932868 45.932868 0 0 0 12.347545-1.728656z m1084.114455-292.945507a46.982409 46.982409 0 0 0-45.253753-34.634864 46.365032 46.365032 0 0 0-12.347545 1.728657 46.982409 46.982409 0 0 0-32.782732 58.34215 323.567418 323.567418 0 0 1-311.466824 410.000233h-438.337849v-83.531142c0-26.794173-18.521318-37.042635-41.426014-22.966434l-200.524131 124.401517c-22.781221 14.076201-22.966434 37.474799-0.493902 51.983164l201.635411 130.204863c22.472532 14.570103 40.870374 4.506854 40.870374-22.225581V911.266914h437.967423a417.717449 417.717449 0 0 0 402.406493-529.52447z" p-id="18724" fill="#dddddd"></path></svg>