<?xml version="1.0" standalone="no"?><!DOCTYPE svg PUBLIC "-//W3C//DTD SVG 1.1//EN" "http://www.w3.org/Graphics/SVG/1.1/DTD/svg11.dtd"><svg t="1583036080555" class="icon" viewBox="0 0 1024 1024" version="1.1" xmlns="http://www.w3.org/2000/svg" p-id="2322" xmlns:xlink="http://www.w3.org/1999/xlink" width="16" height="16"><defs><style type="text/css"></style></defs><path d="M858.5 668.5c-12.5-12.5-32.8-12.5-45.3 0s-12.5 32.8 0 45.3l40.7 40.7c-63.5 0.3-200.6-27.6-316.8-245.2-37.8-70.8-82.4-130.8-132.4-178.2-41.5-39.3-87-70.4-135.2-92.2-85.2-38.6-154.4-37.5-173.6-36.3-17.6 1.2-31 16.4-29.8 34 1.2 17.6 16.4 31 34 29.8 11-0.7 69.6-2.6 143 30.7 94.7 42.9 174.7 124.5 237.6 242.3 40.6 76.1 87.7 137.9 139.7 183.6 42.7 37.5 88.8 64.3 137.1 79.9 37.1 11.9 70 15.3 95.3 15.3h0.3l-39.9 39.9c-12.5 12.5-12.5 32.8 0 45.3 6.2 6.2 14.4 9.4 22.6 9.4s16.4-3.1 22.6-9.4l90.1-90.1c7.3-7.3 11.4-17.1 11.4-27.4 0-10.4-4-20.1-11.3-27.4l-90.1-90z" p-id="2323" fill="#dddddd"></path><path d="M450.6 578.5c-14.4-10.2-34.4-6.7-44.6 7.7-57.3 81.3-123 133.9-195 156.5-55.2 17.3-96.5 10.9-107.9 8.6-17.3-3.6-34.2 7.5-37.8 24.9-3.6 17.3 7.5 34.2 24.9 37.8 8.2 1.7 24.6 4.4 47.1 4.4 71.1 0 202.2-26.7 321.1-195.2 10.1-14.5 6.6-34.5-7.8-44.7zM544.1 424.1c6 5.1 13.3 7.6 20.6 7.5 9.1 0 18.1-3.9 24.5-11.4 60-71 129.2-118.5 205.7-141.1 23.8-7 44.6-10.4 60.8-11.9l-42.4 42.4c-12.5 12.5-12.5 32.8 0 45.3 6.2 6.2 14.4 9.4 22.6 9.4s16.4-3.1 22.6-9.4l90.1-90.1c7.3-7.3 11.3-17.1 11.3-27.4 0-10.4-4-20.1-11.3-27.4l-90.1-90c-12.5-12.5-32.8-12.5-45.3 0s-12.5 32.8 0 45.3l38.2 38.2c-19.4 1.7-43.6 5.6-71 13.4-39.6 11.3-78.3 28.7-114.9 51.7-45.1 28.4-87.3 65.6-125.2 110.4-11.4 13.6-9.7 33.7 3.8 45.1z" p-id="2324" fill="#dddddd"></path></svg>