<?xml version="1.0" standalone="no"?><!DOCTYPE svg PUBLIC "-//W3C//DTD SVG 1.1//EN" "http://www.w3.org/Graphics/SVG/1.1/DTD/svg11.dtd"><svg t="1582540778606" class="icon" viewBox="0 0 1024 1024" version="1.1" xmlns="http://www.w3.org/2000/svg" p-id="30988" xmlns:xlink="http://www.w3.org/1999/xlink" width="16" height="16"><defs><style type="text/css"></style></defs><path d="M950.828456 156.813806c0-8.930989-7.078991-9.642988-12.285985-9.642989l-311.748613 0.001c-2.968996 0-5.944993-0.106-8.905989 0.077-20.540975 1.270998-32.44096 11.748985-32.73996 36.462955s16.38698 36.386955 38.986952 36.412955c75.884906 0.084 117.077855-0.125 192.966761-0.125h11.920985c-1.236998 2.999996-1.422998 3.158996-1.852998 3.589996-55.717931 55.781931-142.611823 158.353804-205.824745 225.58372-58.562927-51.957936-135.155832-83.155897-216.348731-83.457897-201.103751-0.750999-330.85659 170.728788-331.869589 318.325606-1.414998 206.452744 157.788804 340.173578 329.529592 339.952578 183.264773-0.242 328.743592-144.456821 328.743592-326.790595 0.968999-73.091909-22.069973-139.714827-60.987924-193.750759C733.234726 436.374459 820.386618 327.901593 877.999546 270.661664v9.957988c0 74.567908-0.188 114.111858-0.053 188.678766 0.01 6.525992 0.205 13.323983 1.992998 19.523976 4.919994 17.060979 22.836972 26.435967 40.981949 23.499971 17.136979-2.771997 29.927963-13.099984 29.927963-35.981956 0.041-118.450853 0.007-201.075751-0.021-319.526603zM402.765135 947.689825c-139.192827-0.117-250.958689-113.18186-250.662689-253.878685 0.29-138.054829 115.140857-250.760689 251.585688-249.078692 133.213835-2.070997 251.862688 109.773864 251.575688 252.082688-0.281 137.798829-113.975859 250.986689-252.498687 250.874689z" p-id="30989" fill="#0edce6"></path></svg>