<?xml version="1.0" standalone="no"?><!DOCTYPE svg PUBLIC "-//W3C//DTD SVG 1.1//EN" "http://www.w3.org/Graphics/SVG/1.1/DTD/svg11.dtd"><svg t="1581928225275" class="icon" viewBox="0 0 1024 1024" version="1.1" xmlns="http://www.w3.org/2000/svg" p-id="39005" xmlns:xlink="http://www.w3.org/1999/xlink" width="16" height="16"><defs><style type="text/css"></style></defs><path d="M512 0C387.52256 0 286.72 97.9968 286.72 219.52512V225.28h153.6c11.28448 0 20.48 9.19552 20.48 20.48 0 11.28448-9.19552 20.48-20.48 20.48H286.72v40.96h153.6c11.28448 0 20.48 9.19552 20.48 20.48 0 11.28448-9.19552 20.48-20.48 20.48H286.72v40.96h153.6c11.28448 0 20.48 9.19552 20.48 20.48 0 11.28448-9.19552 20.48-20.48 20.48H286.72v46.71488C286.72 598.3232 387.52256 696.32 512 696.32s225.28-97.9968 225.28-219.52512V430.08h-153.6a20.48 20.48 0 1 1 0-40.96H737.28v-40.96h-153.6a20.48 20.48 0 1 1 0-40.96H737.28v-40.96h-153.6a20.48 20.48 0 1 1 0-40.96H737.28v-5.75488C737.28 97.9968 636.47744 0 512 0zM200.97024 350.72A17.79712 17.79712 0 0 0 186.88 368.64v102.4c0 158.0032 113.93024 290.48832 263.68 319.36512V901.12h122.88v-110.71488c149.77024-28.8768 263.68-161.36192 263.68-319.36512v-102.4a17.89952 17.89952 0 1 0-35.84 0v102.4c0 159.76448-129.51552 289.28-289.28 289.28S222.72 630.80448 222.72 471.04v-102.4a17.87904 17.87904 0 0 0-5.8368-13.43488 17.69472 17.69472 0 0 0-14.00832-4.48512H200.97024zM317.44 942.08a71.20896 71.20896 0 0 0-71.04512 71.04512L245.76 1024l529.92-1.26976 0.63488-9.60512A71.18848 71.18848 0 0 0 705.29024 942.08H317.44z" p-id="39006" fill="#03f066"></path></svg>