<?xml version="1.0" standalone="no"?><!DOCTYPE svg PUBLIC "-//W3C//DTD SVG 1.1//EN" "http://www.w3.org/Graphics/SVG/1.1/DTD/svg11.dtd"><svg t="1580553898937" class="icon" viewBox="0 0 1024 1024" version="1.1" xmlns="http://www.w3.org/2000/svg" p-id="2472" xmlns:xlink="http://www.w3.org/1999/xlink" width="16" height="16"><defs><style type="text/css"></style></defs><path d="M817.298286 789.723429a113.225143 113.225143 0 0 1-37.558857 32.402285 154.075429 154.075429 0 0 1-47.506286 16.457143c-31.341714 5.851429-53.211429 7.497143-73.142857 3.657143a110.774857 110.774857 0 0 1-49.627429-23.405714 98.011429 98.011429 0 0 1-34.450286-63.853715 98.486857 98.486857 0 0 1 29.220572-80.274285 121.051429 121.051429 0 0 1 44.397714-27.099429c19.931429-7.497143 25.892571-10.971429 59.392-17.408 8.777143-1.682286 17.773714-3.181714 26.587429-4.827428 11.446857-2.194286 21.394286-4.827429 29.732571-14.299429 8.338286-9.654857 8.338286-20.772571 8.338286-31.926857V294.582857c0-21.796571-10.459429-27.611429-32.329143-23.954286l-319.122286 54.637715c-19.273143 4.315429-25.636571 10.166857-25.636571 32.438857v417.060571c0 16.457143-0.987429 30.902857-4.754286 47.36-3.584 15.945143-8.045714 29.732571-17.993143 43.008a123.611429 123.611429 0 0 1-39.497143 33.645715c-15.140571 8.448-49.627429 24.905143-66.304 28.086857-31.341714 5.814857-53.211429 7.460571-73.142857 3.657143a106.422857 106.422857 0 0 1-49.627428-23.954286 99.474286 99.474286 0 0 1-33.974857-63.817143 97.133714 97.133714 0 0 1 28.269714-80.310857 121.051429 121.051429 0 0 1 44.397714-27.062857c19.931429-7.497143 41.801143-11.666286 75.264-18.139429 8.813714-1.645714 17.810286-3.145143 26.624-4.827428 11.446857-2.157714 21.394286-4.790857 29.732572-14.262858 7.826286-8.996571 8.777143-20.297143 8.777142-31.451428V223.378286c0-6.326857 0.512-10.605714 1.024-12.8 1.609143-10.130286 5.705143-18.614857 13.531429-24.941715 6.217143-5.302857 14.701714-8.448 25.636571-10.605714l407.04-77.641143c3.620571-0.512 32.987429-5.851429 36.096-5.851428 21.869714-1.645714 34.450286 11.666286 34.450286 34.121143v572.635428c-0.329143 16.457143-0.329143 30.72-3.913143 47.177143a114.944 114.944 0 0 1-19.931428 44.251429z" p-id="2473" fill="#03f066"></path></svg>