<?xml version="1.0" standalone="no"?><!DOCTYPE svg PUBLIC "-//W3C//DTD SVG 1.1//EN" "http://www.w3.org/Graphics/SVG/1.1/DTD/svg11.dtd"><svg t="1582877608969" class="icon" viewBox="0 0 1536 1024" version="1.1" xmlns="http://www.w3.org/2000/svg" p-id="11182" xmlns:xlink="http://www.w3.org/1999/xlink" width="24" height="16"><defs><style type="text/css"></style></defs><path d="M56.888889 122.311111c0-23.495111 12.515556-45.226667 32.824889-56.832a64.625778 64.625778 0 0 1 65.365333 0.568889l325.063111 196.266667a65.536 65.536 0 0 1 0 112.526222l-325.063111 196.266667a64.682667 64.682667 0 0 1-65.024 0.682666A65.251556 65.251556 0 0 1 56.888889 514.844444v-392.533333zM707.072 187.733333h707.015111C1450.097778 187.733333 1479.111111 158.435556 1479.111111 122.311111 1479.111111 86.186667 1450.040889 56.888889 1414.087111 56.888889H707.128889c-35.953778 0-65.024 29.297778-65.024 65.422222 0 36.124444 29.070222 65.422222 65.024 65.422222z m707.015111 261.688889H707.128889c-35.953778 0-65.024 29.297778-65.024 65.422222 0 36.124444 29.070222 65.422222 65.024 65.422223h707.015111C1450.097778 580.266667 1479.111111 550.968889 1479.111111 514.844444c0-36.124444-29.070222-65.422222-65.024-65.422222z m0 392.533334H121.912889C85.902222 841.955556 56.888889 871.253333 56.888889 907.377778c0 36.124444 29.070222 65.422222 65.024 65.422222h1292.174222c35.953778 0 65.024-29.297778 65.024-65.422222 0-36.124444-29.070222-65.422222-65.024-65.422222z" p-id="11183" fill="#03f066"></path></svg>