<?xml version="1.0" standalone="no"?><!DOCTYPE svg PUBLIC "-//W3C//DTD SVG 1.1//EN" "http://www.w3.org/Graphics/SVG/1.1/DTD/svg11.dtd"><svg t="1582448314599" class="icon" viewBox="0 0 1024 1024" version="1.1" xmlns="http://www.w3.org/2000/svg" p-id="4380" xmlns:xlink="http://www.w3.org/1999/xlink" width="16" height="16"><defs><style type="text/css"></style></defs><path d="M380.973828 550.655392H752.553705v59.199287H380.973828z" fill="#dddddd" p-id="4381"></path><path d="M879.132588 146.420791H697.421037V72.930009h-59.199287v73.490782h-253.155721V72.930009h-59.198263v73.490782H144.156214c-31.512714 0-57.150628 25.637913-57.150628 57.152674v661.483546c0 31.513738 25.637913 57.151651 57.150628 57.151652h734.976374c31.512714 0 57.151651-25.638937 57.152675-57.152675V203.572442c0-31.513738-25.638937-57.151651-57.152675-57.151651z m-2.046612 663.502529c0 29.271674-23.814382 53.087079-53.087079 53.087079H199.289905c-29.271674 0-53.087079-23.814382-53.087079-53.087079v-383.801223h730.88315v383.801223z m-0.001024-443.027116H146.202826V258.70511c0-29.271674 23.814382-53.086056 53.087079-53.086056h126.578884v55.132668h59.198264v-55.132668h253.15572v55.132668h59.199287v-55.132668h126.57786c29.271674 0 53.087079 23.814382 53.087079 53.086056l-0.002047 108.191094z" fill="#dddddd" p-id="4382"></path><path d="M380.973828 679.251212H752.553705v59.226916H380.973828zM270.734074 679.251212h59.226916v59.227939h-59.226916zM270.734074 550.655392h59.226916v59.199287h-59.226916z" fill="#dddddd" p-id="4383"></path></svg>