<?xml version="1.0" standalone="no"?><!DOCTYPE svg PUBLIC "-//W3C//DTD SVG 1.1//EN" "http://www.w3.org/Graphics/SVG/1.1/DTD/svg11.dtd"><svg t="1581739221306" class="icon" viewBox="0 0 1024 1024" version="1.1" xmlns="http://www.w3.org/2000/svg" p-id="48284" xmlns:xlink="http://www.w3.org/1999/xlink" width="16" height="16"><defs><style type="text/css"></style></defs><path d="M756.249306 903.868999 724.512522 828.622108C839.524687 757.33558 916.388052 630.361504 916.388052 485.121265 916.388052 261.859187 735.342901 80.867919 512.026941 80.867919 288.710981 80.867919 107.665831 261.859187 107.665831 485.121265 107.665831 631.439154 185.687669 759.221467 302.154661 830.184701L270.390936 905.431591C125.231521 821.590444 27.273163 664.981001 27.273163 485.148206 27.273163 217.109783 244.311813-0.171338 512.026941-0.171338 779.742069-0.171338 996.78072 217.109783 996.78072 485.148206 996.78072 663.87641 899.980835 819.650675 756.249306 903.868999ZM592.66208 484.905735C592.66208 529.574315 556.560815 565.756404 512.026941 565.756404 467.493067 565.756404 431.391802 529.574315 431.391802 484.905735 431.391802 440.210214 467.493067 404.028125 512.026941 404.028125 556.560815 404.028125 592.66208 440.210214 592.66208 484.905735ZM355.417498 703.964979C287.229213 655.093565 242.641456 575.401369 242.641456 485.148206 242.641456 336.378664 363.257399 215.816604 512.026941 215.816604 660.796483 215.816604 781.412426 336.378664 781.412426 485.148206 781.412426 574.296778 737.902319 653.099913 671.114979 702.106033L638.543017 624.919373C676.691816 590.3807 700.804228 540.620225 700.804228 485.094324 700.804228 380.831715 616.28955 296.290095 512.026941 296.290095 407.764332 296.290095 323.249654 380.831715 323.249654 485.094324 323.249654 541.751757 348.331951 592.455176 387.854754 627.047731L355.417498 703.964979ZM378.155907 898.426868C378.88332 888.431667 381.712151 879.59494 386.319103 873.182924L478.242623 588.629519C483.226753 573.219128 497.559494 564.867343 512.026941 566.914878 526.494389 564.867343 540.82713 573.219128 545.811259 588.629519L637.815603 873.344571C642.233967 879.621881 644.928091 888.216137 645.736328 897.861102L671.950157 979.008125C677.63476 996.600756 668.95968 1015.836803 652.579404 1021.952466 636.199129 1028.041186 618.310143 1018.746458 612.625541 1001.126885L593.847495 942.960742 430.206387 942.960742 411.428341 1001.126885C405.743739 1018.746458 387.854754 1028.041186 371.474478 1021.952466 355.094203 1015.836803 346.419123 996.600756 352.130666 979.008125L378.155907 898.426868ZM567.849196 862.541133 512.026941 689.766944 456.204687 862.541133 567.849196 862.541133Z" p-id="48285" fill="#ffffff"></path></svg>