<?xml version="1.0" standalone="no"?><!DOCTYPE svg PUBLIC "-//W3C//DTD SVG 1.1//EN" "http://www.w3.org/Graphics/SVG/1.1/DTD/svg11.dtd"><svg t="1580548371326" class="icon" viewBox="0 0 1024 1024" version="1.1" xmlns="http://www.w3.org/2000/svg" p-id="42687" xmlns:xlink="http://www.w3.org/1999/xlink" width="16" height="16"><defs><style type="text/css"></style></defs><path d="M512 0c-97.862 0-189.3 27.472-267.054 75.1 0.662-0.406 1.32-0.822 1.984-1.226v876.25c-0.666-0.404-1.322-0.818-1.984-1.224C322.7 996.528 414.138 1024 512 1024c282.77 0 512-229.23 512-512S794.77 0 512 0z" fill="#289c58" p-id="42688" data-spm-anchor-id="a313x.7781069.0.i54" class=""></path><path d="M246.93 744.728h721.238a508.532 508.532 0 0 0 36.554-93.092h-134.388c-25.22 0-45.666-20.446-45.666-45.666v-1.758c0-25.22 20.446-45.666 45.666-45.666h16.666c25.22 0 45.666-20.446 45.666-45.666v-1.758c0-25.22 20.446-45.666 45.666-45.666h43.538c-2.882-31.966-8.666-63.092-17.152-93.09h-74.388c-25.22 0-45.666-20.446-45.666-45.666v-1.758c0-25.222-20.446-45.666-45.666-45.666H246.93z" fill="#03f066" p-id="42689" data-spm-anchor-id="a313x.7781069.0.i47" class=""></path><path d="M246.93 950.124v-0.032c-0.66-0.4-1.326-0.79-1.984-1.194 0.662 0.408 1.318 0.824 1.984 1.226z" fill="#4B4F59" p-id="42690"></path><path d="M806.414 930.91h-31.862c-25.706 0-46.546-20.84-46.546-46.546s-20.838-46.546-46.546-46.546H246.93v112.274C324.256 996.98 414.966 1024 512 1024c109.594 0 211.132-34.452 294.414-93.09z" fill="#03f066" p-id="42691" data-spm-anchor-id="a313x.7781069.0.i50" class=""></path><path d="M244.946 75.1c0.658-0.404 1.324-0.792 1.984-1.192v-0.032c-0.666 0.402-1.322 0.818-1.984 1.224z" fill="#4B4F59" p-id="42692"></path><path d="M246.93 186.182h430.736c25.22 0 45.666-20.446 45.666-45.666v-1.758c0-25.22 20.446-45.666 45.666-45.666h37.414C723.132 34.452 621.594 0 512 0c-97.034 0-187.744 27.02-265.07 73.908z" fill="#03f066" p-id="42693" data-spm-anchor-id="a313x.7781069.0.i51" class=""></path><path d="M350 62a451.224 451.224 0 0 0-103.07 11.876C98.91 163.622 0 326.258 0 512s98.91 348.378 246.93 438.124A451.224 451.224 0 0 0 350 962c248.528 0 450-201.472 450-450S598.528 62 350 62z" fill="#18b75a" p-id="42694" data-spm-anchor-id="a313x.7781069.0.i59" class=""></path><path d="M316.666 129.5H171.674a514.944 514.944 0 0 0-72.794 80h217.788c22.092 0 40-17.908 40-40s-17.91-40-40.002-40z" fill="#47c17a" p-id="42695" data-spm-anchor-id="a313x.7781069.0.i61" class=""></path><path d="M785.126 627.072H496.14c-22.092 0-40 17.908-40 40s17.908 40 40 40h259.496a446.688 446.688 0 0 0 29.49-80z" fill="#289C58" p-id="42696" data-spm-anchor-id="a313x.7781069.0.i64" class=""></path><path d="M510 780C261.472 780 60 578.528 60 330c0-23.126 1.75-45.844 5.116-68.032C23.652 335.914 0 421.192 0 512c0 185.742 98.91 348.378 246.93 438.124A451.224 451.224 0 0 0 350 962c178.638 0 332.964-104.09 405.634-254.928C685.004 753.178 600.64 780 510 780z" fill="#38b96d" p-id="42697" data-spm-anchor-id="a313x.7781069.0.i57" class=""></path><path d="M0 512c0 52.232 7.822 102.636 22.356 150.106h134.028a156.356 156.356 0 0 0 110.56-45.796 156.356 156.356 0 0 1 110.56-45.796h418.71A453.702 453.702 0 0 0 800 512c0-60.17-11.84-117.568-33.268-170.032H28.928C10.202 395.172 0 452.392 0 512z" fill="#59d28b" p-id="42698" data-spm-anchor-id="a313x.7781069.0.i60" class=""></path><path d="M60.16 341.968H28.928C10.202 395.172 0 452.392 0 512c0 52.232 7.822 102.636 22.356 150.106h134.028c14.804 0 29.38-2.136 43.352-6.17-83.396-79.412-136.352-190.498-139.576-313.968z" fill="#18b75a" p-id="42699" data-spm-anchor-id="a313x.7781069.0.i62" class=""></path><path d="M652.794 179.112c-23.278-10.992-49.292-17.142-76.744-17.142-55.19 0-104.57 24.842-137.586 63.952-19.162 22.698-47.158 36.048-76.862 36.048H65.116a508.516 508.516 0 0 0-57.208 160h353.696c29.704 0 57.7 13.35 76.862 36.048 33.016 39.11 82.396 63.952 137.586 63.952s104.57-24.842 137.586-63.952c19.162-22.698 47.158-36.048 76.862-36.048h0.484c-19.366-95.372-68.89-179.788-138.19-242.858z" fill="#47c17a" p-id="42700" data-spm-anchor-id="a313x.7781069.0.i58" class=""></path><path d="M576.052 341.968m-100 0a100 100 0 1 0 200 0 100 100 0 1 0-200 0Z" fill="#289C58" p-id="42701" data-spm-anchor-id="a313x.7781069.0.i55" class=""></path><path d="M60 330c0-23.126 1.75-45.844 5.116-68.032a508.516 508.516 0 0 0-57.208 160H69.42A451.9 451.9 0 0 1 60 330z" fill="#03f066" p-id="42702" data-spm-anchor-id="a313x.7781069.0.i63" class=""></path><path d="M188.858 909.144a513.66 513.66 0 0 0 58.072 40.982A451.336 451.336 0 0 0 350 962c121.278 0 231.334-47.992 312.256-126H365.44a249.718 249.718 0 0 0-176.582 73.144z" fill="#289C58" p-id="42703" data-spm-anchor-id="a313x.7781069.0.i56" class=""></path><path d="M812.334 196.362m-30 0a30 30 0 1 0 60 0 30 30 0 1 0-60 0Z" fill="#03f066" p-id="42704" data-spm-anchor-id="a313x.7781069.0.i52" class=""></path><path d="M806.414 827.03m-30 0a30 30 0 1 0 60 0 30 30 0 1 0-60 0Z" fill="#03f066" p-id="42705" data-spm-anchor-id="a313x.7781069.0.i53" class=""></path></svg>