<?xml version="1.0" standalone="no"?><!DOCTYPE svg PUBLIC "-//W3C//DTD SVG 1.1//EN" "http://www.w3.org/Graphics/SVG/1.1/DTD/svg11.dtd"><svg t="1581908250825" class="icon" viewBox="0 0 1024 1024" version="1.1" xmlns="http://www.w3.org/2000/svg" p-id="17687" xmlns:xlink="http://www.w3.org/1999/xlink" width="16" height="16"><defs><style type="text/css"></style></defs><path d="M449.632 906.496h0.768a29.664 29.664 0 0 0 29.664-29.664v-0.352 0.032V147.488v-0.32a29.664 29.664 0 0 0-29.664-29.664h-0.8 0.032-0.448a29.536 29.536 0 0 0-29.536 29.536v0.48-0.032 729.024c0 16.704 12.832 29.984 29.984 29.984z m249.44-85.696h0.096a29.92 29.92 0 0 0 29.92-29.92v-0.544 0.032V233.632c0-16.704-12.864-30.432-29.984-30.432s-30.432 13.728-30.432 30.432v556.736c0 16.704 13.28 30.432 30.432 30.432z m-373.728-69.44h0.448c16.32 0 29.536-13.216 29.536-29.536v-0.48 0.032V302.624v-0.448a29.536 29.536 0 0 0-29.536-29.536h-0.48 0.032-0.768a29.664 29.664 0 0 0-29.664 29.664v0.352-0.032 418.752c0 16.704 12.864 29.984 30.432 29.984z m249.024-46.272h0.512a29.92 29.92 0 0 0 29.92-29.92V348.928c0-16.704-13.28-29.984-30.432-29.984s-29.984 13.28-29.984 29.984v326.144c0 16.704 12.864 29.984 29.984 29.984z m249.408-76.736h0.096a29.92 29.92 0 0 0 29.92-29.92v-0.544 0.032-171.84-0.512a29.92 29.92 0 0 0-29.92-29.92h-0.512a29.984 29.984 0 0 0-29.984 29.984v172.736c0 16.576 13.44 29.984 29.984 29.984h0.448zM200.64 594.496h0.448c16.32 0 29.536-13.216 29.536-29.536v-0.48 0.032-105.024-0.448a29.536 29.536 0 0 0-29.536-29.536h-0.48 0.032-0.768a29.664 29.664 0 0 0-29.664 29.664v0.352-0.032 104.992c0 16.704 12.864 29.984 30.432 29.984z" p-id="17688" fill="#e6d60e"></path></svg>