<?xml version="1.0" standalone="no"?><!DOCTYPE svg PUBLIC "-//W3C//DTD SVG 1.1//EN" "http://www.w3.org/Graphics/SVG/1.1/DTD/svg11.dtd"><svg t="1581908380118" class="icon" viewBox="0 0 1024 1024" version="1.1" xmlns="http://www.w3.org/2000/svg" p-id="20411" xmlns:xlink="http://www.w3.org/1999/xlink" width="16" height="16"><defs><style type="text/css"></style></defs><path d="M921.6 669.013c-6.827 0-20.48-27.307-34.133-40.96-20.48-34.133-40.96-81.92-88.747-81.92s-68.267 40.96-88.747 81.92c0 13.653-13.653 34.133-20.48 40.96-6.827-20.48-20.48-109.227-27.307-157.013-20.48-129.707-34.133-218.453-95.573-218.453-54.613 0-68.267 88.747-88.747 218.453-6.827 47.787-20.48 129.707-34.133 163.84-13.653-13.653-20.48-34.133-27.307-40.96-13.653-40.96-34.133-88.747-81.92-88.747s-68.267 40.96-88.747 81.92c-6.827 20.48-20.48 40.96-27.307 40.96-13.653 0-27.307-27.307-34.133-40.96-13.653-34.133-34.133-81.92-81.92-81.92-20.48 0-34.133 13.653-34.133 34.133s13.653 34.133 34.133 34.133c6.827 0 20.48 27.307 34.133 40.96 20.48 34.133 40.96 81.92 88.747 81.92s68.267-40.96 88.747-81.92c6.827-20.48 20.48-40.96 34.133-40.96 0-6.827 13.653 20.48 27.307 34.133 20.48 34.133 40.96 81.92 88.747 81.92 54.613 0 68.267-88.747 88.747-218.453 6.827-40.96 13.653-102.4 20.48-136.533 13.653 40.96 20.48 102.4 27.307 143.36 20.48 129.707 34.133 218.453 88.747 218.453 47.787 0 68.267-40.96 88.747-81.92 6.827-20.48 20.48-40.96 34.133-40.96s20.48 27.307 34.133 40.96c20.48 34.133 40.96 81.92 88.747 81.92 13.653 0 27.307-13.653 27.307-34.133-6.827-20.48-20.48-34.133-40.96-34.133z" p-id="20412" fill="#e6d60e"></path></svg>